<svg width="41" height="35" viewBox="0 0 41 35" fill="none" xmlns="http://www.w3.org/2000/svg">
<path fill-rule="evenodd" clip-rule="evenodd" d="M12.7529 1.5545C14.7567 1.47575 15.3957 1.45825 20.5002 1.45825C25.6047 1.45825 26.2436 1.47721 28.2457 1.5545C30.2479 1.63179 31.6146 1.9045 32.8104 2.29971C34.0626 2.70367 35.1987 3.33513 36.1382 4.15179C37.0949 4.95242 37.8329 5.92075 38.3044 6.99117C38.7691 8.012 39.0868 9.17867 39.1791 10.8849C39.2713 12.5985 39.2918 13.1439 39.2918 17.4999C39.2918 21.8574 39.2696 22.4028 39.1791 24.1135C39.0885 25.8197 38.7691 26.9864 38.3044 28.0072C37.8329 29.0778 37.0937 30.0477 36.1382 30.8495C35.1987 31.6662 34.0626 32.2962 32.8104 32.6987C31.6146 33.0953 30.2479 33.3666 28.2492 33.4453C26.2436 33.5241 25.6047 33.5416 20.5002 33.5416C15.3957 33.5416 14.7567 33.5226 12.7529 33.4453C10.7541 33.368 9.38745 33.0953 8.19162 32.6987C6.93757 32.2961 5.80136 31.6651 4.86208 30.8495C3.90606 30.0484 3.16624 29.0789 2.6942 28.0087C2.23125 26.9878 1.9135 25.8212 1.82125 24.1149C1.729 22.4014 1.7085 21.856 1.7085 17.4999C1.7085 13.1424 1.7307 12.597 1.82125 10.8878C1.91179 9.17867 2.23125 8.012 2.6942 6.99117C3.16694 5.92087 3.90732 4.95142 4.86379 4.15034C5.80173 3.3344 6.9368 2.70286 8.18991 2.29971C9.38575 1.9045 10.7524 1.63325 12.7512 1.5545H12.7529ZM28.0937 4.442C26.112 4.36471 25.5175 4.34867 20.5002 4.34867C15.4828 4.34867 14.8883 4.36471 12.9066 4.442C11.0736 4.51346 10.0793 4.7745 9.4165 4.99471C8.54012 5.28638 7.91316 5.632 7.25545 6.19346C6.63199 6.71124 6.15218 7.34158 5.8512 8.03825C5.59325 8.60409 5.28745 9.45283 5.20375 11.0176C5.1132 12.7093 5.09441 13.2168 5.09441 17.4999C5.09441 21.783 5.1132 22.2905 5.20375 23.9822C5.28745 25.547 5.59325 26.3958 5.8512 26.9616C6.15187 27.6572 6.63191 28.2887 7.25545 28.8064C7.86191 29.3387 8.60162 29.7485 9.4165 30.0051C10.0793 30.2253 11.0736 30.4864 12.9066 30.5578C14.8883 30.6351 15.4811 30.6512 20.5002 30.6512C25.5192 30.6512 26.112 30.6351 28.0937 30.5578C29.9267 30.4864 30.921 30.2253 31.5838 30.0051C32.4602 29.7135 33.0872 29.3678 33.7449 28.8064C34.3684 28.2887 34.8485 27.6572 35.1491 26.9616C35.4071 26.3958 35.7129 25.547 35.7966 23.9822C35.8871 22.2905 35.9059 21.783 35.9059 17.4999C35.9059 13.2168 35.8871 12.7093 35.7966 11.0176C35.7129 9.45283 35.4071 8.60409 35.1491 8.03825C34.8075 7.29013 34.4026 6.75492 33.7449 6.19346C33.1383 5.66127 32.3999 5.25168 31.5838 4.99471C30.921 4.7745 29.9267 4.51346 28.0937 4.442V4.442ZM18.1 22.4451C19.4404 22.9215 20.933 22.9858 22.3228 22.627C23.7126 22.2683 24.9135 21.5088 25.7202 20.4782C26.5269 19.4476 26.8894 18.2099 26.7459 16.9765C26.6024 15.7431 25.9617 14.5905 24.9333 13.7155C24.2777 13.1562 23.485 12.728 22.6122 12.4616C21.7395 12.1952 20.8084 12.0973 19.886 12.175C18.9636 12.2526 18.0729 12.5039 17.2779 12.9107C16.4829 13.3175 15.8035 13.8698 15.2886 14.5276C14.7736 15.1855 14.4359 15.9326 14.2998 16.7153C14.1637 17.4979 14.2325 18.2966 14.5014 19.0538C14.7703 19.811 15.2325 20.5079 15.8547 21.0943C16.477 21.6807 17.2438 22.1421 18.1 22.4451ZM13.6702 11.6695C14.5672 10.9038 15.632 10.2965 16.8038 9.88211C17.9757 9.46774 19.2317 9.25446 20.5002 9.25446C21.7686 9.25446 23.0246 9.46774 24.1965 9.88211C25.3684 10.2965 26.4332 10.9038 27.3301 11.6695C28.227 12.4352 28.9385 13.3441 29.4239 14.3445C29.9093 15.3449 30.1591 16.4171 30.1591 17.4999C30.1591 18.5827 29.9093 19.6549 29.4239 20.6553C28.9385 21.6557 28.227 22.5647 27.3301 23.3303C25.5187 24.8767 23.0619 25.7454 20.5002 25.7454C17.9384 25.7454 15.4817 24.8767 13.6702 23.3303C11.8588 21.784 10.8412 19.6867 10.8412 17.4999C10.8412 15.3131 11.8588 13.2158 13.6702 11.6695V11.6695ZM32.3013 10.4824C32.5236 10.3034 32.7015 10.0882 32.8246 9.84946C32.9477 9.61072 33.0134 9.35333 33.0178 9.09252C33.0223 8.83172 32.9654 8.5728 32.8505 8.3311C32.7357 8.0894 32.5651 7.86983 32.3491 7.68539C32.133 7.50095 31.8758 7.3554 31.5927 7.25734C31.3096 7.15928 31.0063 7.11072 30.7007 7.11452C30.3952 7.11832 30.0937 7.17441 29.814 7.27948C29.5344 7.38454 29.2822 7.53643 29.0726 7.72617C28.6648 8.09517 28.4416 8.5853 28.4502 9.09252C28.4589 9.59975 28.6988 10.0841 29.119 10.4428C29.5392 10.8015 30.1066 11.0063 30.7007 11.0137C31.2949 11.0211 31.8691 10.8305 32.3013 10.4824V10.4824Z" fill="white"/>
</svg>
