<svg width="40" height="33" viewBox="0 0 40 33" fill="none" xmlns="http://www.w3.org/2000/svg">
<path fill-rule="evenodd" clip-rule="evenodd" d="M10.8769 0.855386C9.84078 0.97528 8.89376 1.30171 7.97439 1.8558C4.31602 4.06067 1.38709 9.73386 0.372234 16.5809C0.188139 17.8229 0.0858075 18.8867 0.0225491 20.2157C-0.0216062 21.1436 0.00216044 23.0052 0.067093 23.7021C0.336838 26.5971 1.09235 28.7987 2.35441 30.3673C3.08992 31.2815 3.90944 31.9034 4.89443 32.2947C5.6616 32.5996 6.35377 32.7256 7.25954 32.7255C8.99669 32.7253 10.2681 32.1955 11.6129 30.9116C12.2408 30.3121 13.2001 29.0822 13.9065 27.9712C15.1591 26.0011 15.9707 24.4247 18.5733 18.9073L20.0058 15.8704L20.317 16.4857C20.7209 17.2841 22.1611 20.1677 23.0343 21.9263C25.2171 26.3219 26.484 28.4663 27.8471 30.0726C29.2036 31.6712 30.465 32.437 32.1281 32.672C32.5732 32.7348 33.4891 32.743 33.9119 32.6878C35.0623 32.5378 36.0928 32.0662 36.943 31.3004C37.2298 31.0421 37.764 30.4205 38.0004 30.0699C38.9709 28.6308 39.6236 26.5672 39.8727 24.1505C40.0615 22.3184 40.0395 20.011 39.8119 17.8006C39.1538 11.4079 36.8278 5.83092 33.6081 2.92634C31.6767 1.18382 29.4729 0.496852 27.4135 0.99537C25.2512 1.51882 23.1492 3.45424 20.9091 6.98434C20.7463 7.24084 20.5967 7.47238 20.5767 7.49882C20.5472 7.53789 20.478 7.45433 20.2085 7.05444C17.2752 2.7018 14.6293 0.805412 11.5347 0.83752C11.2305 0.840677 10.9344 0.848713 10.8769 0.855386ZM29.3521 5.04612C30.3978 5.32569 31.3477 6.01245 32.2698 7.1556C32.8935 7.92874 33.3886 8.74235 33.8685 9.78258C35.1413 12.5416 35.8808 15.8012 36.1435 19.8096C36.2017 20.6981 36.193 22.9181 36.129 23.4868C35.8682 25.8055 35.1495 27.0875 33.9025 27.4588C33.5496 27.5639 32.8856 27.5711 32.536 27.4736C31.6097 27.2153 30.9576 26.5607 29.8513 24.7783C29.0481 23.4842 27.3337 20.2469 25.4058 16.3836C23.9403 13.447 23.4469 12.4934 22.7084 11.1698L22.5015 10.7992L22.844 10.1833C24.5885 7.04504 26.0901 5.43554 27.6504 5.03145C27.8944 4.96823 28.0123 4.96031 28.53 4.97232C28.9413 4.98183 29.1979 5.0049 29.3521 5.04612ZM12.1026 6.10942C13.2743 6.30461 14.2726 6.98742 15.4524 8.40057C16.1511 9.2375 16.8217 10.2093 17.6216 11.5438L17.9587 12.1062L17.8603 12.2897C17.8061 12.3906 17.4213 13.1028 17.0052 13.8723C15.9896 15.7503 15.0897 17.4312 14.1051 19.2894C13.0443 21.2916 12.7665 21.8009 12.168 22.8411C10.4597 25.8097 9.44754 27.0189 8.35606 27.3951C7.52507 27.6816 6.67027 27.576 5.99918 27.104C5.75 26.9287 5.34041 26.4472 5.15294 26.1091C4.7405 25.3653 4.47249 24.3571 4.35569 23.1101C4.30729 22.5935 4.3075 20.8821 4.35608 20.1504C4.69087 15.1059 6.14094 10.5126 8.19941 7.97599C9.15496 6.79854 10.0411 6.21532 11.116 6.05657C11.2647 6.03462 11.8377 6.06533 12.1026 6.10942Z" fill="white"/>
<path d="M24.2909 14.1816C19.2245 4.29944 15.8512 0.836914 11.4992 0.836914L11.4443 6.02912C14.2938 6.02912 16.5033 8.72386 21.3082 18.4288L21.6012 19.0196L24.2909 14.1816Z" fill="white"/>
</svg>
