<svg width="37" height="39" viewBox="0 0 37 39" fill="none" xmlns="http://www.w3.org/2000/svg">
<path d="M36.0051 8.55797C34.7178 9.15922 33.3349 9.56547 31.8811 9.74909C33.3812 8.80301 34.5034 7.31398 35.0385 5.55984C33.6291 6.4422 32.0867 7.06328 30.4782 7.39609C29.3965 6.17875 27.9638 5.37187 26.4025 5.10074C24.8412 4.8296 23.2387 5.10938 21.8437 5.89663C20.4487 6.68388 19.3393 7.93456 18.6878 9.45449C18.0362 10.9744 17.879 12.6786 18.2405 14.3023C15.3848 14.1512 12.5912 13.3689 10.041 12.0061C7.49076 10.6433 5.24088 8.73048 3.43737 6.39184C2.82071 7.51309 2.46613 8.81309 2.46613 10.1976C2.46544 11.444 2.75663 12.6712 3.31385 13.7705C3.87108 14.8698 4.67712 15.8072 5.66046 16.4993C4.52005 16.4611 3.4048 16.1363 2.40754 15.552V15.6495C2.40743 17.3975 2.98109 19.0918 4.0312 20.4448C5.08131 21.7978 6.54317 22.7262 8.16875 23.0725C7.11083 23.3743 6.00169 23.4187 4.92508 23.2025C5.38372 24.7066 6.27712 26.0219 7.48019 26.9642C8.68326 27.9066 10.1358 28.4288 11.6344 28.4577C9.09041 30.5628 5.94858 31.7046 2.71433 31.6996C2.14142 31.6998 1.56899 31.6645 1 31.594C4.28294 33.8189 8.10452 34.9997 12.0075 34.9951C25.2196 34.9951 32.4423 23.4608 32.4423 13.4573C32.4423 13.1323 32.4346 12.8041 32.4207 12.4791C33.8256 11.4082 35.0383 10.082 36.002 8.56284L36.0051 8.55797V8.55797Z" fill="white"/>
</svg>
