<svg width="74" height="74" viewBox="0 0 74 74" fill="none" xmlns="http://www.w3.org/2000/svg">
<path d="M50.3969 13.7649L50.3969 13.7642C50.0028 9.78506 48.2577 6.07849 45.469 3.31676C44.8907 2.67759 44.1961 2.16095 43.4236 1.79775C42.6437 1.43107 41.8007 1.22848 40.9432 1.20279C40.0857 1.17711 39.2324 1.32889 38.4331 1.64853C37.6338 1.96815 36.9054 2.44879 36.2888 3.06095C36.2477 3.10173 36.2112 3.14685 36.1799 3.19552C35.1848 4.74052 34.5478 6.50299 34.3169 8.34422C33.8866 10.3395 33.3576 12.31 32.7319 14.2479C31.313 18.5414 29.4105 22.6417 27.0654 26.4631C26.9335 26.5217 26.8103 26.5982 26.699 26.6902C26.528 26.8316 26.3894 27.0063 26.2897 27.2017C26.2816 27.2175 26.2741 27.2335 26.2671 27.2498C25.7146 28.5363 24.7891 29.6011 23.6294 30.2969C22.6098 30.9086 21.4531 31.209 20.2885 31.1722L20.2272 27.2926C20.3045 27.1602 20.3637 27.0171 20.4026 26.8672C20.5033 26.4789 20.463 26.0653 20.2876 25.7038C20.1118 25.3414 19.809 25.0507 19.4292 24.8975C19.408 24.889 19.3865 24.8814 19.3647 24.8747C14.0346 23.2391 8.34714 23.4064 3.11795 25.348C3.02165 25.3299 2.92315 25.3205 2.82354 25.3205C2.38146 25.3205 1.96502 25.5042 1.66353 25.819C1.36322 26.1325 1.2 26.5508 1.2 26.9803V68.9038C1.2 69.3333 1.36321 69.7516 1.66353 70.0651C1.96502 70.3799 2.38146 70.5636 2.82354 70.5636C2.83537 70.5636 2.84717 70.5634 2.85897 70.5632C2.96616 70.6137 3.07974 70.6527 3.19811 70.6803C8.3954 71.9575 13.706 72.6678 19.0442 72.7998L19.064 72.8C19.4046 72.8 19.7305 72.6908 20.0002 72.4963C20.5413 72.2539 20.9367 71.7154 20.9177 70.9847C20.9176 70.9827 20.9176 70.9808 20.9175 70.9788L20.9014 69.9545C34.6871 71.926 48.6604 72.0266 62.473 70.2529C63.043 70.2331 63.4765 69.9278 63.7278 69.5289C63.9189 69.2256 64.0051 68.874 64.0044 68.5383C64.0116 68.5196 64.0186 68.5008 64.0252 68.4818C64.0452 68.4249 64.0587 68.3659 64.0654 68.3061C68.8045 55.6267 71.7462 42.2936 72.7976 28.7281C72.7992 28.7075 72.8 28.6869 72.8 28.6663C72.8 28.1746 72.6121 27.7415 72.2739 27.4407C72.0772 27.2657 71.8483 27.1521 71.6127 27.0923C71.3112 26.7775 70.8948 26.5939 70.4528 26.5938L70.4402 26.594C63.6595 26.7014 56.88 26.3283 50.1486 25.4776C50.6961 21.6012 50.78 17.6668 50.3969 13.7649ZM61.0873 67.0941C47.7106 68.7128 34.1897 68.5527 20.8486 66.6166L20.341 34.4898C22.0688 34.5249 23.7763 34.0687 25.2775 33.1663C26.7582 32.2763 27.9732 30.9914 28.8037 29.4549C29.0338 29.3245 29.2344 29.1339 29.3901 28.89L29.3913 28.888C33.2112 22.8665 35.9484 16.1707 37.4697 9.12833C37.4766 9.09654 37.4815 9.06435 37.4845 9.03195C37.6167 7.57933 38.1141 6.19238 38.9222 5.01085C39.417 4.64172 40.0061 4.44545 40.6076 4.44545C41.2443 4.44545 41.8672 4.66533 42.3789 5.07725C42.3847 5.0819 42.3905 5.08646 42.3964 5.09094C43.6477 6.04213 44.7042 7.2492 45.5009 8.64109C46.2977 10.033 46.8177 11.5804 47.0286 13.1903L47.0285 13.1903L47.0297 13.1982C47.6435 17.5457 47.5453 21.9705 46.7391 26.2834C46.73 26.3319 46.7254 26.3811 46.7254 26.4304C46.7254 27.0331 46.9885 27.5339 47.3595 27.8658C47.6059 28.2379 48.0075 28.5275 48.5373 28.5993C55.4692 29.5442 62.4553 29.9875 69.4451 29.926C68.3234 42.659 65.5108 55.1684 61.0873 67.0941ZM17.6458 69.4311C13.2026 69.2326 8.78485 68.6137 4.44707 67.5816V28.3743C8.49241 26.9467 12.8281 26.7034 16.9858 27.6607L17.6458 69.4311Z" fill="#052838" stroke="#052838" stroke-width="1.6" stroke-linejoin="round"/>
</svg>
