<svg width="47" height="47" viewBox="0 0 47 47" fill="none" xmlns="http://www.w3.org/2000/svg">
<path d="M29.375 17.625H27.375C27.375 18.7296 28.2704 19.625 29.375 19.625L29.375 17.625ZM17.625 17.625L17.625 19.625C18.1554 19.625 18.6641 19.4143 19.0392 19.0392C19.4143 18.6641 19.625 18.1554 19.625 17.625L17.625 17.625ZM17.625 7.83333L19.625 7.83333V7.83333H17.625ZM17.625 39.1667L15.625 39.1667V39.1667H17.625ZM17.625 29.375L19.625 29.375C19.625 28.2704 18.7296 27.375 17.625 27.375L17.625 29.375ZM29.375 29.375V27.375C28.2704 27.375 27.375 28.2704 27.375 29.375H29.375ZM39.1667 17.625L39.1667 19.625H39.1667V17.625ZM7.83333 17.625L7.83333 15.625H7.83333V17.625ZM7.83333 29.375L7.83333 27.375H7.83333V29.375ZM27.4167 39.125H19.5833V43.125H27.4167V39.125ZM19.5833 7.875H27.4167V3.875H19.5833V7.875ZM27.375 7.83333V17.625H31.375V7.83333H27.375ZM19.625 17.625L19.625 7.83333L15.625 7.83333L15.625 17.625L19.625 17.625ZM19.625 39.1667L19.625 29.375L15.625 29.375L15.625 39.1667L19.625 39.1667ZM27.375 29.375V39.1667H31.375V29.375H27.375ZM19.5833 3.875C17.3972 3.875 15.625 5.64721 15.625 7.83333H19.625C19.625 7.83332 19.625 7.83348 19.625 7.83381C19.625 7.83414 19.6249 7.8346 19.6249 7.83518C19.6248 7.83637 19.6245 7.83787 19.6242 7.83961C19.6235 7.8432 19.6223 7.84682 19.6209 7.85017C19.6182 7.8566 19.6151 7.86048 19.6128 7.8628C19.6105 7.86511 19.6066 7.86818 19.6002 7.8709C19.5968 7.87232 19.5932 7.87345 19.5896 7.87418C19.5879 7.87454 19.5864 7.87476 19.5852 7.87488C19.5846 7.87494 19.5841 7.87497 19.5838 7.87498C19.5835 7.875 19.5833 7.875 19.5833 7.875V3.875ZM19.5833 39.125C19.5833 39.125 19.5835 39.125 19.5838 39.125C19.5841 39.125 19.5846 39.1251 19.5852 39.1251C19.5864 39.1252 19.5879 39.1255 19.5896 39.1258C19.5932 39.1266 19.5968 39.1277 19.6002 39.1291C19.6066 39.1318 19.6105 39.1349 19.6128 39.1372C19.6151 39.1395 19.6182 39.1434 19.6209 39.1498C19.6223 39.1532 19.6234 39.1568 19.6242 39.1604C19.6245 39.1621 19.6248 39.1636 19.6249 39.1648C19.6249 39.1654 19.625 39.1659 19.625 39.1662C19.625 39.1665 19.625 39.1667 19.625 39.1667H15.625C15.625 41.3528 17.3972 43.125 19.5833 43.125V39.125ZM27.4167 43.125C29.6028 43.125 31.375 41.3528 31.375 39.1667H27.375C27.375 39.1667 27.375 39.1665 27.375 39.1662C27.375 39.1659 27.3751 39.1654 27.3751 39.1648C27.3752 39.1636 27.3755 39.1621 27.3758 39.1604C27.3765 39.1568 27.3777 39.1532 27.3791 39.1498C27.3818 39.1434 27.3849 39.1395 27.3872 39.1372C27.3895 39.1349 27.3934 39.1318 27.3998 39.1291C27.4032 39.1277 27.4068 39.1266 27.4104 39.1258C27.4121 39.1255 27.4136 39.1252 27.4148 39.1251C27.4154 39.1251 27.4159 39.125 27.4162 39.125C27.4165 39.125 27.4167 39.125 27.4167 39.125V43.125ZM27.4167 7.875C27.4167 7.875 27.4165 7.875 27.4162 7.87498C27.4159 7.87497 27.4154 7.87494 27.4148 7.87488C27.4136 7.87476 27.4121 7.87454 27.4104 7.87418C27.4068 7.87345 27.4032 7.87232 27.3998 7.8709C27.3934 7.86818 27.3895 7.86511 27.3872 7.8628C27.3849 7.86048 27.3818 7.8566 27.3791 7.85017C27.3777 7.84682 27.3766 7.8432 27.3758 7.83961C27.3755 7.83787 27.3752 7.83637 27.3751 7.83518C27.3751 7.8346 27.375 7.83414 27.375 7.83381C27.375 7.83348 27.375 7.83332 27.375 7.83333H31.375C31.375 5.64721 29.6028 3.875 27.4167 3.875V7.875ZM7.875 27.4167V19.5833H3.875V27.4167H7.875ZM39.125 19.5833V27.4167H43.125V19.5833H39.125ZM39.1667 27.375H29.375V31.375H39.1667V27.375ZM29.375 19.625L39.1667 19.625L39.1667 15.625L29.375 15.625L29.375 19.625ZM7.83333 19.625L17.625 19.625L17.625 15.625L7.83333 15.625L7.83333 19.625ZM17.625 27.375L7.83333 27.375L7.83333 31.375L17.625 31.375L17.625 27.375ZM43.125 19.5833C43.125 17.3972 41.3528 15.625 39.1667 15.625V19.625C39.1667 19.625 39.1665 19.625 39.1662 19.625C39.1659 19.625 39.1654 19.6249 39.1648 19.6249C39.1636 19.6248 39.1621 19.6245 39.1604 19.6242C39.1568 19.6235 39.1532 19.6223 39.1498 19.6209C39.1434 19.6182 39.1395 19.6151 39.1372 19.6128C39.1349 19.6105 39.1318 19.6066 39.1291 19.6002C39.1277 19.5968 39.1266 19.5932 39.1258 19.5896C39.1255 19.5879 39.1252 19.5864 39.1251 19.5852C39.1251 19.5846 39.125 19.5841 39.125 19.5838C39.125 19.5835 39.125 19.5833 39.125 19.5833H43.125ZM7.875 19.5833C7.875 19.5833 7.875 19.5835 7.87498 19.5838C7.87497 19.5841 7.87494 19.5846 7.87488 19.5852C7.87476 19.5864 7.87454 19.5879 7.87418 19.5896C7.87345 19.5932 7.87232 19.5968 7.8709 19.6002C7.86818 19.6066 7.86511 19.6105 7.8628 19.6128C7.86048 19.6151 7.8566 19.6182 7.85017 19.6209C7.84682 19.6223 7.8432 19.6234 7.83961 19.6242C7.83787 19.6245 7.83637 19.6248 7.83518 19.6249C7.8346 19.6249 7.83414 19.625 7.83381 19.625C7.83348 19.625 7.83332 19.625 7.83333 19.625V15.625C5.64721 15.625 3.875 17.3972 3.875 19.5833H7.875ZM3.875 27.4167C3.875 29.6028 5.64721 31.375 7.83333 31.375V27.375C7.83332 27.375 7.83348 27.375 7.83381 27.375C7.83414 27.375 7.8346 27.3751 7.83518 27.3751C7.83636 27.3752 7.83787 27.3755 7.83961 27.3758C7.8432 27.3765 7.84682 27.3777 7.85017 27.3791C7.8566 27.3818 7.86048 27.3849 7.8628 27.3872C7.86511 27.3895 7.86818 27.3934 7.8709 27.3998C7.87232 27.4032 7.87345 27.4068 7.87418 27.4104C7.87454 27.4121 7.87476 27.4136 7.87488 27.4148C7.87494 27.4154 7.87497 27.4159 7.87498 27.4162C7.875 27.4165 7.875 27.4167 7.875 27.4167H3.875ZM39.125 27.4167C39.125 27.4167 39.125 27.4165 39.125 27.4162C39.125 27.4159 39.1251 27.4154 39.1251 27.4148C39.1252 27.4136 39.1255 27.4121 39.1258 27.4104C39.1266 27.4068 39.1277 27.4032 39.1291 27.3998C39.1318 27.3934 39.1349 27.3895 39.1372 27.3872C39.1395 27.3849 39.1434 27.3818 39.1498 27.3791C39.1532 27.3777 39.1568 27.3766 39.1604 27.3758C39.1621 27.3755 39.1636 27.3752 39.1648 27.3751C39.1654 27.3751 39.1659 27.375 39.1662 27.375C39.1665 27.375 39.1667 27.375 39.1667 27.375V31.375C41.3528 31.375 43.125 29.6028 43.125 27.4167H39.125Z" fill="#052838"/>
</svg>
