<svg width="47" height="47" viewBox="0 0 47 47" fill="none" xmlns="http://www.w3.org/2000/svg">
<path d="M24.0685 40.923L24.7786 42.7927L24.7786 42.7927L24.0685 40.923ZM22.9319 40.923L22.2218 42.7927L22.2218 42.7927L22.9319 40.923ZM9.79183 7.875H37.2085V3.875H9.79183V7.875ZM37.1668 7.83333V19.9062H41.1668V7.83333H37.1668ZM9.8335 19.9062V7.83333H5.8335V19.9062H9.8335ZM37.1668 19.9062C37.1668 32.9861 26.0738 38.0219 23.3583 39.0533L24.7786 42.7927C27.6861 41.6884 41.1668 35.7372 41.1668 19.9062H37.1668ZM5.8335 19.9062C5.8335 35.7372 19.3142 41.6884 22.2218 42.7927L23.642 39.0533C20.9265 38.0219 9.8335 32.9861 9.8335 19.9062H5.8335ZM23.3583 39.0533C23.3919 39.0405 23.4412 39.0291 23.5002 39.0291C23.5592 39.0291 23.6084 39.0405 23.642 39.0533L22.2218 42.7927C23.0517 43.1079 23.9486 43.1079 24.7786 42.7927L23.3583 39.0533ZM37.2085 7.875C37.2085 7.875 37.2083 7.875 37.208 7.87498C37.2077 7.87497 37.2072 7.87494 37.2067 7.87488C37.2055 7.87476 37.204 7.87454 37.2022 7.87418C37.1986 7.87345 37.195 7.87232 37.1917 7.8709C37.1852 7.86818 37.1814 7.86511 37.179 7.8628C37.1767 7.86048 37.1736 7.8566 37.1709 7.85017C37.1695 7.84682 37.1684 7.8432 37.1676 7.83961C37.1673 7.83787 37.1671 7.83636 37.167 7.83518C37.1669 7.8346 37.1669 7.83414 37.1668 7.83381C37.1668 7.83348 37.1668 7.83332 37.1668 7.83333H41.1668C41.1668 5.64721 39.3946 3.875 37.2085 3.875V7.875ZM9.79183 3.875C7.6057 3.875 5.8335 5.6472 5.8335 7.83333H9.8335C9.8335 7.83332 9.8335 7.83348 9.83348 7.83381C9.83346 7.83413 9.83343 7.83459 9.83337 7.83518C9.83325 7.83636 9.83304 7.83787 9.83268 7.83961C9.83195 7.8432 9.83081 7.84682 9.8294 7.85017C9.82668 7.8566 9.82361 7.86048 9.82129 7.8628C9.81897 7.86511 9.81509 7.86818 9.80866 7.8709C9.80532 7.87232 9.8017 7.87345 9.79811 7.87418C9.79636 7.87454 9.79486 7.87476 9.79367 7.87488C9.79309 7.87494 9.79263 7.87497 9.7923 7.87498C9.79198 7.875 9.79181 7.875 9.79183 7.875V3.875Z" fill="#052838"/>
<path d="M30.7892 19.0392C31.5703 18.2582 31.5703 16.9918 30.7892 16.2108C30.0082 15.4297 28.7418 15.4297 27.9608 16.2108L30.7892 19.0392ZM21.5417 25.4583L20.1275 26.8725C20.5025 27.2476 21.0112 27.4583 21.5417 27.4583C22.0721 27.4583 22.5808 27.2476 22.9559 26.8725L21.5417 25.4583ZM19.0392 20.1275C18.2582 19.3464 16.9918 19.3464 16.2108 20.1275C15.4297 20.9085 15.4297 22.1748 16.2108 22.9559L19.0392 20.1275ZM27.9608 16.2108L20.1275 24.0441L22.9559 26.8725L30.7892 19.0392L27.9608 16.2108ZM22.9559 24.0441L19.0392 20.1275L16.2108 22.9559L20.1275 26.8725L22.9559 24.0441Z" fill="#052838"/>
</svg>
