<svg width="45" height="47" viewBox="0 0 45 47" fill="none" xmlns="http://www.w3.org/2000/svg">
<path d="M5.625 37.2083C5.625 32.8821 10.6618 29.375 16.875 29.375C23.0882 29.375 28.125 32.8821 28.125 37.2083" stroke="#052838" stroke-width="4" stroke-linecap="round" stroke-linejoin="round"/>
<path d="M33.625 31.3333C33.625 32.4378 34.5204 33.3333 35.625 33.3333C36.7296 33.3333 37.625 32.4378 37.625 31.3333H33.625ZM37.625 19.5833C37.625 18.4787 36.7296 17.5833 35.625 17.5833C34.5204 17.5833 33.625 18.4787 33.625 19.5833H37.625ZM37.625 31.3333V19.5833H33.625V31.3333H37.625Z" fill="#052838"/>
<path d="M30 23.4583C28.8954 23.4583 28 24.3537 28 25.4583C28 26.5628 28.8954 27.4583 30 27.4583L30 23.4583ZM41.25 27.4583C42.3546 27.4583 43.25 26.5628 43.25 25.4583C43.25 24.3537 42.3546 23.4583 41.25 23.4583L41.25 27.4583ZM30 27.4583L41.25 27.4583L41.25 23.4583L30 23.4583L30 27.4583Z" fill="#052838"/>
<path d="M16.875 23.4999C21.0171 23.4999 24.375 19.9928 24.375 15.6666C24.375 11.3404 21.0171 7.83325 16.875 7.83325C12.7329 7.83325 9.375 11.3404 9.375 15.6666C9.375 19.9928 12.7329 23.4999 16.875 23.4999Z" stroke="#052838" stroke-width="4" stroke-linecap="round" stroke-linejoin="round"/>
</svg>
