<svg width="74" height="74" viewBox="0 0 74 74" fill="none" xmlns="http://www.w3.org/2000/svg">
<mask id="path-1-outside-1_45_59" maskUnits="userSpaceOnUse" x="0" y="0" width="74" height="74" fill="black">
<rect fill="white" width="74" height="74"/>
<path d="M2.60533 32.3016C4.28457 19.2119 11.9344 6.12222 25.3061 3.56813V3.69584C26.2701 3.50428 26.7055 5.03674 25.7104 5.2283C10.846 8.06972 4.06684 23.8093 3.72478 37.9206C3.4369 41.3214 3.84128 44.7465 4.91198 47.9783C5.98268 51.2101 7.69628 54.1779 9.94418 56.6932C14.2062 61.3587 19.2926 65.1506 24.933 67.8673C30.6627 70.3476 36.9772 71.0405 43.0882 69.8595C49.1991 68.6786 54.8359 65.6761 59.2951 61.2267C63.645 56.9033 66.8844 51.5412 68.7239 45.6193C70.5634 39.6973 70.9458 33.3999 69.837 27.2892C67.1316 14.5188 56.3409 7.33542 44.9594 3.60006C43.9954 3.2808 44.3997 1.74835 45.3637 2.03569C52.0931 4.02672 58.2929 7.56407 63.4933 12.3797C68.6689 17.6285 71.6947 24.7097 71.9516 32.1739C72.2697 38.6651 71.016 45.136 68.3027 51.0082C65.5894 56.8803 61.501 61.9706 56.4031 65.824C51.0903 69.6618 44.793 71.8057 38.2993 71.9874C31.8056 72.1691 25.4038 70.3806 19.8953 66.8457C13.9157 63.4073 8.83667 58.5325 5.09305 52.6386C2.14893 46.3125 1.2763 39.1786 2.60533 32.3016Z"/>
<path d="M37.1755 3.90861C37.0297 4.05829 36.832 4.14237 36.6258 4.14237C36.4196 4.14237 36.2219 4.05829 36.0761 3.90861C35.9304 3.75893 35.8484 3.5559 35.8484 3.34422C35.8484 3.13253 35.9304 2.92953 36.0761 2.77985C36.2219 2.63017 36.4196 2.54606 36.6258 2.54606C36.832 2.54606 37.0297 2.63017 37.1755 2.77985C37.3213 2.92953 37.4032 3.13253 37.4032 3.34422C37.4032 3.5559 37.3213 3.75893 37.1755 3.90861Z"/>
<path fill-rule="evenodd" clip-rule="evenodd" d="M21.9173 27.3058C21.9066 27.3006 21.8961 27.2953 21.8857 27.2896C21.7092 27.183 21.5807 27.0092 21.5283 26.806C21.4759 26.6027 21.5037 26.3865 21.6057 26.2042C22.7849 24.3131 24.2553 22.6311 25.9594 21.2237C26.1047 21.0774 26.3001 20.9955 26.5036 20.9955C26.6133 20.9955 26.7207 21.0194 26.8192 21.0643C26.899 21.0832 26.9762 21.1151 27.0476 21.1594C30.305 23.1773 33.4173 25.4321 36.3605 27.9065C39.6248 26.1245 42.7386 24.0657 45.6695 21.7515C45.6902 21.7231 45.7128 21.6959 45.7373 21.6703C45.8878 21.522 46.0884 21.4392 46.297 21.4392C46.5056 21.4392 46.7062 21.522 46.8567 21.6703L52.6718 26.8423C52.7462 26.914 52.8056 27.0005 52.8461 27.0966C52.8866 27.1927 52.9076 27.2963 52.9076 27.401C52.9076 27.5057 52.8866 27.6093 52.8461 27.7054C52.8094 27.7925 52.7572 27.8717 52.6924 27.9392C52.6631 28.0903 52.5916 28.2307 52.485 28.3424C49.6294 30.8154 46.9063 33.4453 44.3276 36.2203C46.8015 39.015 49.1668 42.1692 51.3986 45.1453L51.5828 45.3909C51.662 45.5709 51.6734 45.7748 51.6147 45.9629C51.5778 46.0812 51.5149 46.1879 51.432 46.2756L51.4324 46.3016C51.4324 46.5105 51.3526 46.7111 51.2102 46.8603L45.4262 52.0962C45.2809 52.2425 45.0855 52.3244 44.882 52.3244C44.6785 52.3244 44.483 52.2425 44.3377 52.0962C44.259 52.0273 44.1958 51.9416 44.1524 51.8452C44.1284 51.7916 44.1107 51.7354 44.0998 51.6779C42.2768 48.845 40.1248 46.2509 37.6915 43.9527C34.5837 45.9616 31.6491 48.2403 28.92 50.764C28.9133 50.7905 28.9053 50.8167 28.8959 50.8425C28.857 50.9496 28.7961 51.0469 28.7173 51.1278C28.6386 51.2087 28.5438 51.2712 28.4394 51.3112C28.3351 51.3512 28.2235 51.3677 28.1124 51.3596C28.0013 51.3515 27.8932 51.3189 27.7955 51.2642C27.6977 51.2095 27.6125 51.1338 27.5457 51.0423L22.508 44.6571C22.3725 44.5042 22.2973 44.305 22.2973 44.0984C22.2973 43.9984 22.3149 43.9002 22.3484 43.8081C22.3167 43.6008 22.3756 43.3793 22.5699 43.1885L30.4626 35.3011C28.3342 32.2527 25.5353 29.7585 22.2901 28.0235C21.9784 27.8635 21.8779 27.5809 21.9173 27.3058ZM23.1425 26.6914C23.3672 26.3495 23.606 26.012 23.8448 25.6933L24.0003 25.4698L24.2802 25.1506C24.429 24.9342 24.5954 24.7313 24.7777 24.544C25.3353 23.8978 25.9408 23.2973 26.5887 22.748C29.7405 24.705 32.7424 26.9062 35.5682 29.3325C35.6518 29.4012 35.739 29.4496 35.8271 29.4804C36.0494 29.6604 36.3458 29.7285 36.6261 29.5558C40.0121 27.746 43.2396 25.64 46.2727 23.2614L51.0699 27.5054C48.1939 29.9843 45.4582 32.6302 42.8762 35.43C42.6655 35.6659 42.6229 35.9352 42.6858 36.1735C42.604 36.4244 42.6325 36.7136 42.8445 36.9624V36.8027C45.3616 39.6946 47.7344 42.7051 49.9906 45.8341L45.0693 50.313C43.1488 47.4105 40.8876 44.7602 38.3359 42.4222C38.1959 42.291 38.0404 42.2282 37.8865 42.2172C37.7018 42.1439 37.4891 42.1531 37.2784 42.2946C34.0477 44.3635 30.996 46.7128 28.1569 49.3165L23.9775 43.9862L31.837 36.1328C31.8718 36.0985 31.9026 36.0634 31.9295 36.0277C32.2625 35.8173 32.4547 35.4086 32.1789 35.0154C29.8717 31.5263 26.7695 28.669 23.1425 26.6914Z"/>
</mask>
<path d="M2.60533 32.3016C4.28457 19.2119 11.9344 6.12222 25.3061 3.56813V3.69584C26.2701 3.50428 26.7055 5.03674 25.7104 5.2283C10.846 8.06972 4.06684 23.8093 3.72478 37.9206C3.4369 41.3214 3.84128 44.7465 4.91198 47.9783C5.98268 51.2101 7.69628 54.1779 9.94418 56.6932C14.2062 61.3587 19.2926 65.1506 24.933 67.8673C30.6627 70.3476 36.9772 71.0405 43.0882 69.8595C49.1991 68.6786 54.8359 65.6761 59.2951 61.2267C63.645 56.9033 66.8844 51.5412 68.7239 45.6193C70.5634 39.6973 70.9458 33.3999 69.837 27.2892C67.1316 14.5188 56.3409 7.33542 44.9594 3.60006C43.9954 3.2808 44.3997 1.74835 45.3637 2.03569C52.0931 4.02672 58.2929 7.56407 63.4933 12.3797C68.6689 17.6285 71.6947 24.7097 71.9516 32.1739C72.2697 38.6651 71.016 45.136 68.3027 51.0082C65.5894 56.8803 61.501 61.9706 56.4031 65.824C51.0903 69.6618 44.793 71.8057 38.2993 71.9874C31.8056 72.1691 25.4038 70.3806 19.8953 66.8457C13.9157 63.4073 8.83667 58.5325 5.09305 52.6386C2.14893 46.3125 1.2763 39.1786 2.60533 32.3016Z" fill="#052838"/>
<path d="M37.1755 3.90861C37.0297 4.05829 36.832 4.14237 36.6258 4.14237C36.4196 4.14237 36.2219 4.05829 36.0761 3.90861C35.9304 3.75893 35.8484 3.5559 35.8484 3.34422C35.8484 3.13253 35.9304 2.92953 36.0761 2.77985C36.2219 2.63017 36.4196 2.54606 36.6258 2.54606C36.832 2.54606 37.0297 2.63017 37.1755 2.77985C37.3213 2.92953 37.4032 3.13253 37.4032 3.34422C37.4032 3.5559 37.3213 3.75893 37.1755 3.90861Z" fill="#052838"/>
<path fill-rule="evenodd" clip-rule="evenodd" d="M21.9173 27.3058C21.9066 27.3006 21.8961 27.2953 21.8857 27.2896C21.7092 27.183 21.5807 27.0092 21.5283 26.806C21.4759 26.6027 21.5037 26.3865 21.6057 26.2042C22.7849 24.3131 24.2553 22.6311 25.9594 21.2237C26.1047 21.0774 26.3001 20.9955 26.5036 20.9955C26.6133 20.9955 26.7207 21.0194 26.8192 21.0643C26.899 21.0832 26.9762 21.1151 27.0476 21.1594C30.305 23.1773 33.4173 25.4321 36.3605 27.9065C39.6248 26.1245 42.7386 24.0657 45.6695 21.7515C45.6902 21.7231 45.7128 21.6959 45.7373 21.6703C45.8878 21.522 46.0884 21.4392 46.297 21.4392C46.5056 21.4392 46.7062 21.522 46.8567 21.6703L52.6718 26.8423C52.7462 26.914 52.8056 27.0005 52.8461 27.0966C52.8866 27.1927 52.9076 27.2963 52.9076 27.401C52.9076 27.5057 52.8866 27.6093 52.8461 27.7054C52.8094 27.7925 52.7572 27.8717 52.6924 27.9392C52.6631 28.0903 52.5916 28.2307 52.485 28.3424C49.6294 30.8154 46.9063 33.4453 44.3276 36.2203C46.8015 39.015 49.1668 42.1692 51.3986 45.1453L51.5828 45.3909C51.662 45.5709 51.6734 45.7748 51.6147 45.9629C51.5778 46.0812 51.5149 46.1879 51.432 46.2756L51.4324 46.3016C51.4324 46.5105 51.3526 46.7111 51.2102 46.8603L45.4262 52.0962C45.2809 52.2425 45.0855 52.3244 44.882 52.3244C44.6785 52.3244 44.483 52.2425 44.3377 52.0962C44.259 52.0273 44.1958 51.9416 44.1524 51.8452C44.1284 51.7916 44.1107 51.7354 44.0998 51.6779C42.2768 48.845 40.1248 46.2509 37.6915 43.9527C34.5837 45.9616 31.6491 48.2403 28.92 50.764C28.9133 50.7905 28.9053 50.8167 28.8959 50.8425C28.857 50.9496 28.7961 51.0469 28.7173 51.1278C28.6386 51.2087 28.5438 51.2712 28.4394 51.3112C28.3351 51.3512 28.2235 51.3677 28.1124 51.3596C28.0013 51.3515 27.8932 51.3189 27.7955 51.2642C27.6977 51.2095 27.6125 51.1338 27.5457 51.0423L22.508 44.6571C22.3725 44.5042 22.2973 44.305 22.2973 44.0984C22.2973 43.9984 22.3149 43.9002 22.3484 43.8081C22.3167 43.6008 22.3756 43.3793 22.5699 43.1885L30.4626 35.3011C28.3342 32.2527 25.5353 29.7585 22.2901 28.0235C21.9784 27.8635 21.8779 27.5809 21.9173 27.3058ZM23.1425 26.6914C23.3672 26.3495 23.606 26.012 23.8448 25.6933L24.0003 25.4698L24.2802 25.1506C24.429 24.9342 24.5954 24.7313 24.7777 24.544C25.3353 23.8978 25.9408 23.2973 26.5887 22.748C29.7405 24.705 32.7424 26.9062 35.5682 29.3325C35.6518 29.4012 35.739 29.4496 35.8271 29.4804C36.0494 29.6604 36.3458 29.7285 36.6261 29.5558C40.0121 27.746 43.2396 25.64 46.2727 23.2614L51.0699 27.5054C48.1939 29.9843 45.4582 32.6302 42.8762 35.43C42.6655 35.6659 42.6229 35.9352 42.6858 36.1735C42.604 36.4244 42.6325 36.7136 42.8445 36.9624V36.8027C45.3616 39.6946 47.7344 42.7051 49.9906 45.8341L45.0693 50.313C43.1488 47.4105 40.8876 44.7602 38.3359 42.4222C38.1959 42.291 38.0404 42.2282 37.8865 42.2172C37.7018 42.1439 37.4891 42.1531 37.2784 42.2946C34.0477 44.3635 30.996 46.7128 28.1569 49.3165L23.9775 43.9862L31.837 36.1328C31.8718 36.0985 31.9026 36.0634 31.9295 36.0277C32.2625 35.8173 32.4547 35.4086 32.1789 35.0154C29.8717 31.5263 26.7695 28.669 23.1425 26.6914Z" fill="#052838"/>
<path d="M2.60533 32.3016L4.17626 32.6052C4.18267 32.5721 4.18803 32.5387 4.19232 32.5052L2.60533 32.3016ZM25.3061 3.56813H26.9061C26.9061 3.09121 26.6934 2.63914 26.3258 2.33519C25.9583 2.03123 25.4744 1.90706 25.0059 1.99654L25.3061 3.56813ZM25.3061 3.69584H23.7061C23.7061 4.17484 23.9207 4.62864 24.291 4.93255C24.6612 5.23647 25.1481 5.35851 25.6179 5.26515L25.3061 3.69584ZM25.7104 5.2283L26.0108 6.79985L26.0128 6.79945L25.7104 5.2283ZM3.72478 37.9206L5.31907 38.0556C5.32178 38.0236 5.32353 37.9915 5.32431 37.9594L3.72478 37.9206ZM4.91198 47.9783L3.39317 48.4815L3.39317 48.4815L4.91198 47.9783ZM9.94418 56.6932L8.75117 57.7594C8.75505 57.7637 8.75895 57.768 8.76287 57.7723L9.94418 56.6932ZM24.933 67.8673L24.2386 69.3088C24.258 69.3182 24.2776 69.3271 24.2973 69.3357L24.933 67.8673ZM43.0882 69.8595L42.7846 68.2886L42.7846 68.2886L43.0882 69.8595ZM59.2951 61.2267L58.1672 60.0919L58.165 60.0941L59.2951 61.2267ZM68.7239 45.6193L70.2518 46.0939L70.2518 46.0939L68.7239 45.6193ZM69.837 27.2892L71.4113 27.0036C71.4085 26.9882 71.4055 26.9729 71.4023 26.9576L69.837 27.2892ZM44.9594 3.60006L44.4564 5.11894L44.4605 5.12028L44.9594 3.60006ZM45.3637 2.03569L44.9067 3.56903L44.9098 3.56994L45.3637 2.03569ZM63.4933 12.3797L64.6326 11.2563C64.6156 11.2391 64.5982 11.2222 64.5804 11.2058L63.4933 12.3797ZM71.9516 32.1739L70.3526 32.229C70.3528 32.2367 70.3532 32.2445 70.3535 32.2522L71.9516 32.1739ZM68.3027 51.0082L66.8502 50.337L66.8502 50.337L68.3027 51.0082ZM56.4031 65.824L57.34 67.121C57.3494 67.1143 57.3587 67.1074 57.3679 67.1004L56.4031 65.824ZM38.2993 71.9874L38.2546 70.388L38.2546 70.388L38.2993 71.9874ZM19.8953 66.8457L20.7594 65.4991C20.7375 65.4851 20.7153 65.4716 20.6928 65.4587L19.8953 66.8457ZM5.09305 52.6386L3.64245 53.3137C3.67178 53.3767 3.70519 53.4377 3.74246 53.4964L5.09305 52.6386ZM37.1755 3.90861L38.3216 5.02501L38.3216 5.02499L37.1755 3.90861ZM36.0761 3.90861L34.93 5.02499L34.93 5.02501L36.0761 3.90861ZM36.0761 2.77985L34.93 1.66345L34.93 1.66347L36.0761 2.77985ZM37.1755 2.77985L38.3216 1.66347L38.3216 1.66345L37.1755 2.77985ZM23.1425 26.6914L21.8054 25.8126C21.5598 26.1863 21.4818 26.6457 21.5903 27.0796C21.6988 27.5134 21.9839 27.8821 22.3765 28.0962L23.1425 26.6914ZM23.8448 25.6933L25.1253 26.6527C25.1366 26.6377 25.1476 26.6224 25.1583 26.6069L23.8448 25.6933ZM24.0003 25.4698L22.7973 24.4149C22.7578 24.4599 22.7209 24.5071 22.6868 24.5562L24.0003 25.4698ZM24.2802 25.1506L25.4832 26.2055C25.5246 26.1583 25.5631 26.1088 25.5986 26.0572L24.2802 25.1506ZM24.7777 24.544L25.9242 25.66C25.9465 25.6371 25.9682 25.6135 25.9891 25.5893L24.7777 24.544ZM26.5887 22.748L27.4327 21.3887C26.8427 21.0224 26.0838 21.0785 25.554 21.5276L26.5887 22.748ZM35.5682 29.3325L34.5258 30.5465C34.5347 30.554 34.5436 30.5616 34.5526 30.569L35.5682 29.3325ZM35.8271 29.4804L36.8343 28.2371C36.691 28.1211 36.5288 28.0307 36.3548 27.9699L35.8271 29.4804ZM36.6261 29.5558L35.8719 28.1447C35.8431 28.1601 35.8148 28.1764 35.787 28.1935L36.6261 29.5558ZM46.2727 23.2614L47.3329 22.063C46.7545 21.5513 45.8931 21.5258 45.2854 22.0024L46.2727 23.2614ZM51.0699 27.5054L52.1145 28.7173C52.4644 28.4157 52.6669 27.9776 52.6699 27.5157C52.6729 27.0538 52.4761 26.6131 52.1301 26.307L51.0699 27.5054ZM42.8762 35.43L41.7 34.3453C41.6942 34.3516 41.6884 34.3579 41.6827 34.3643L42.8762 35.43ZM42.6858 36.1735L44.2071 36.669C44.3024 36.3765 44.3113 36.0627 44.2328 35.7653L42.6858 36.1735ZM42.8445 36.9624L41.6268 38.0002C42.0617 38.5105 42.7685 38.6955 43.3975 38.4638C44.0266 38.2321 44.4445 37.6328 44.4445 36.9624H42.8445ZM42.8445 36.8027L44.0514 35.7523C43.6133 35.2489 42.9087 35.0703 42.2837 35.3043C41.6587 35.5382 41.2445 36.1354 41.2445 36.8027H42.8445ZM49.9906 45.8341L51.0675 47.0174C51.6691 46.4699 51.7641 45.5581 51.2884 44.8983L49.9906 45.8341ZM45.0693 50.313L43.7349 51.1959C43.9927 51.5855 44.4079 51.843 44.8715 51.9007C45.335 51.9585 45.8007 51.8107 46.1462 51.4963L45.0693 50.313ZM38.3359 42.4222L37.2417 43.5895C37.2461 43.5937 37.2506 43.5978 37.2551 43.6019L38.3359 42.4222ZM37.8865 42.2172L37.296 43.7043C37.4484 43.7648 37.6091 43.8015 37.7727 43.8132L37.8865 42.2172ZM37.2784 42.2946L38.1413 43.6419C38.151 43.6357 38.1606 43.6294 38.1702 43.623L37.2784 42.2946ZM28.1569 49.3165L26.8978 50.3037C27.1729 50.6545 27.5818 50.8747 28.0261 50.9111C28.4704 50.9475 28.9098 50.797 29.2384 50.4957L28.1569 49.3165ZM23.9775 43.9862L22.8466 42.8544C22.2739 43.4266 22.2189 44.3364 22.7184 44.9735L23.9775 43.9862ZM31.837 36.1328L30.7148 34.9922L30.706 35.001L31.837 36.1328ZM31.9295 36.0277L31.0748 34.6752C30.9116 34.7783 30.7684 34.9101 30.6521 35.0643L31.9295 36.0277ZM32.1789 35.0154L30.8443 35.8979C30.8524 35.91 30.8606 35.9221 30.8689 35.934L32.1789 35.0154ZM21.9173 27.3058L23.5011 27.5323C23.5997 26.8429 23.241 26.1688 22.6141 25.8655L21.9173 27.3058ZM21.8857 27.2896L21.0584 28.6591C21.0805 28.6725 21.103 28.6853 21.1257 28.6976L21.8857 27.2896ZM21.6057 26.2042L20.2481 25.3575C20.2347 25.379 20.2218 25.4008 20.2095 25.4229L21.6057 26.2042ZM25.9594 21.2237L26.9783 22.4573C27.0187 22.424 27.0574 22.3886 27.0943 22.3515L25.9594 21.2237ZM26.8192 21.0643L26.1551 22.52C26.2499 22.5632 26.3486 22.5971 26.45 22.6211L26.8192 21.0643ZM27.0476 21.1594L26.2037 22.5188L26.205 22.5196L27.0476 21.1594ZM36.3605 27.9065L35.3309 29.1312C35.8354 29.5554 36.5485 29.6267 37.1271 29.3109L36.3605 27.9065ZM45.6695 21.7515L46.661 23.0072C46.7757 22.9167 46.8775 22.8108 46.9634 22.6926L45.6695 21.7515ZM45.7373 21.6703L44.6145 20.5304C44.6028 20.5419 44.5913 20.5536 44.58 20.5654L45.7373 21.6703ZM46.8567 21.6703L45.7339 22.8102C45.7533 22.8292 45.7731 22.8478 45.7934 22.8658L46.8567 21.6703ZM52.6718 26.8423L53.782 25.6901C53.7667 25.6754 53.7511 25.6609 53.7352 25.6468L52.6718 26.8423ZM52.8461 27.0966L51.3718 27.7183L51.3718 27.7183L52.8461 27.0966ZM52.8461 27.7054L51.3718 27.0837L51.3718 27.0838L52.8461 27.7054ZM52.6924 27.9392L51.5388 26.8305C51.3251 27.0529 51.1802 27.3323 51.1215 27.6352L52.6924 27.9392ZM52.485 28.3424L53.5325 29.5518C53.5707 29.5187 53.6074 29.4838 53.6423 29.4472L52.485 28.3424ZM44.3276 36.2203L43.1555 35.1312C42.5951 35.7343 42.5838 36.6643 43.1296 37.2808L44.3276 36.2203ZM51.3986 45.1453L50.1186 46.1052L50.1186 46.1053L51.3986 45.1453ZM51.5828 45.3909L53.0472 44.7462C52.998 44.6344 52.9361 44.5287 52.8628 44.4309L51.5828 45.3909ZM51.6147 45.9629L53.1421 46.4393L53.1421 46.4393L51.6147 45.9629ZM51.432 46.2756L50.2695 45.1763C49.9824 45.4799 49.8254 45.8838 49.8322 46.3017L51.432 46.2756ZM51.4324 46.3016H53.0324C53.0324 46.2929 53.0324 46.2843 53.0322 46.2756L51.4324 46.3016ZM51.2102 46.8603L52.284 48.0465C52.3128 48.0204 52.3406 47.9933 52.3675 47.9652L51.2102 46.8603ZM45.4262 52.0962L44.3524 50.91C44.3315 50.929 44.3111 50.9484 44.2913 50.9684L45.4262 52.0962ZM44.3377 52.0962L45.4726 50.9684C45.4465 50.9422 45.4195 50.9168 45.3917 50.8924L44.3377 52.0962ZM44.1524 51.8452L45.6118 51.1893L45.6118 51.1892L44.1524 51.8452ZM44.0998 51.6779L45.6717 51.3793C45.6333 51.1774 45.5565 50.9848 45.4453 50.812L44.0998 51.6779ZM37.6915 43.9527L38.7902 42.7896C38.2543 42.2834 37.442 42.2089 36.823 42.609L37.6915 43.9527ZM28.92 50.764L27.8337 49.5892C27.6062 49.7996 27.4447 50.0716 27.3688 50.372L28.92 50.764ZM28.8959 50.8425L30.3996 51.3892L30.3996 51.3892L28.8959 50.8425ZM28.7173 51.1278L27.5712 50.0114L27.5711 50.0114L28.7173 51.1278ZM28.1124 51.3596L28.2289 49.7638L28.2288 49.7638L28.1124 51.3596ZM27.7955 51.2642L28.5769 49.868L28.5769 49.868L27.7955 51.2642ZM27.5457 51.0423L28.8376 50.0985C28.826 50.0825 28.814 50.0668 28.8018 50.0513L27.5457 51.0423ZM22.508 44.6571L23.7641 43.666C23.7452 43.6421 23.7256 43.6186 23.7053 43.5957L22.508 44.6571ZM22.3484 43.8081L23.8519 44.3552C23.9437 44.103 23.9706 43.8318 23.93 43.5664L22.3484 43.8081ZM22.5699 43.1885L23.691 44.3301L23.7009 44.3202L22.5699 43.1885ZM30.4626 35.3011L31.5936 36.4328C32.1424 35.8844 32.2186 35.0212 31.7745 34.3851L30.4626 35.3011ZM22.2901 28.0235L23.0444 26.6125C23.0366 26.6083 23.0287 26.6042 23.0207 26.6001L22.2901 28.0235ZM4.19232 32.5052C5.82974 19.7415 13.2134 7.50685 25.6063 5.13972L25.0059 1.99654C10.6554 4.73758 2.7394 18.6823 1.01833 32.098L4.19232 32.5052ZM23.7061 3.56813V3.69584H26.9061V3.56813H23.7061ZM25.6179 5.26515C25.3965 5.30916 25.1471 5.24989 24.9605 5.11097C24.8038 4.99429 24.7309 4.8547 24.6998 4.74115C24.6698 4.63188 24.6454 4.41706 24.7724 4.16385C24.9261 3.85723 25.2023 3.69673 25.4079 3.65715L26.0128 6.79945C26.716 6.66409 27.3109 6.2402 27.6328 5.59836C27.9279 5.00992 27.9209 4.38803 27.7861 3.89565C27.5287 2.95643 26.5346 1.82044 24.9943 2.12652L25.6179 5.26515ZM25.41 3.65676C17.4346 5.18129 11.6722 10.1732 7.89605 16.5312C4.13409 22.8653 2.30156 30.6083 2.12525 37.8819L5.32431 37.9594C5.49006 31.1217 7.21815 23.9392 10.6474 18.1653C14.0624 12.4154 19.1218 8.11673 26.0108 6.79984L25.41 3.65676ZM2.13048 37.7857C1.82439 41.4016 2.25425 45.0438 3.39317 48.4815L6.4308 47.4751C5.42832 44.4492 5.04941 41.2413 5.31907 38.0556L2.13048 37.7857ZM3.39317 48.4815C4.53211 51.9193 6.35587 55.0791 8.75117 57.7594L11.1372 55.627C9.0367 53.2767 7.43325 50.5009 6.4308 47.4751L3.39317 48.4815ZM8.76287 57.7723C13.1613 62.5872 18.4126 66.5027 24.2386 69.3088L25.6273 66.4258C20.1726 63.7986 15.2511 60.1303 11.1255 55.6141L8.76287 57.7723ZM24.2973 69.3357C30.3217 71.9435 36.9635 72.6728 43.3918 71.4305L42.7846 68.2886C36.991 69.4083 31.0037 68.7518 25.5686 66.399L24.2973 69.3357ZM43.3918 71.4305C49.8198 70.1882 55.7432 67.031 60.4252 62.3593L58.165 60.0941C53.9285 64.3212 48.5785 67.1689 42.7846 68.2886L43.3918 71.4305ZM60.423 62.3615C64.9603 57.8519 68.3358 52.2624 70.2518 46.0939L67.1959 45.1446C65.4329 50.82 62.3297 55.9547 58.1672 60.0919L60.423 62.3615ZM70.2518 46.0939C72.1679 39.9256 72.566 33.3673 71.4113 27.0036L68.2627 27.5749C69.3256 33.4325 68.9589 39.4691 67.1959 45.1446L70.2518 46.0939ZM71.4023 26.9576C68.5215 13.3595 57.0553 5.88589 45.4584 2.07984L44.4605 5.12028C55.6266 8.78495 65.7417 15.678 68.2718 27.6208L71.4023 26.9576ZM45.4625 2.08119C45.6516 2.14384 45.8409 2.30432 45.9401 2.52548C46.024 2.71252 46.017 2.87832 45.9867 2.9946C45.9571 3.10795 45.8738 3.2896 45.661 3.43501C45.4062 3.60916 45.1099 3.62961 44.9067 3.56903L45.8207 0.502352C45.1355 0.298103 44.4272 0.40236 43.8555 0.793005C43.326 1.15491 43.0211 1.68575 42.8905 2.18621C42.6346 3.16608 42.9713 4.62709 44.4564 5.11893L45.4625 2.08119ZM44.9098 3.56994C51.4008 5.49045 57.3845 8.90349 62.4062 13.5537L64.5804 11.2058C59.2014 6.22464 52.7854 2.56299 45.8177 0.501434L44.9098 3.56994ZM62.354 13.5031C67.2437 18.4619 70.1093 25.1601 70.3526 32.229L73.5507 32.1189C73.2802 24.2594 70.0942 16.7951 64.6326 11.2563L62.354 13.5031ZM70.3535 32.2522C70.659 38.4868 69.4547 44.7004 66.8502 50.337L69.7551 51.6793C72.5773 45.5716 73.8803 38.8434 73.5497 32.0956L70.3535 32.2522ZM66.8502 50.337C64.2459 55.9735 60.3237 60.8548 55.4383 64.5477L57.3679 67.1004C62.6783 63.0864 66.9329 57.7871 69.7551 51.6793L66.8502 50.337ZM55.4662 64.527C50.4112 68.1785 44.4243 70.2154 38.2546 70.388L38.3441 73.5868C45.1618 73.396 51.7693 71.145 57.34 67.121L55.4662 64.527ZM38.2546 70.388C32.0849 70.5607 25.9995 68.8618 20.7594 65.4991L19.0311 68.1923C24.8082 71.8995 31.5263 73.7776 38.3441 73.5868L38.2546 70.388ZM20.6928 65.4587C14.9405 62.151 10.0502 57.4589 6.44364 51.7807L3.74246 53.4964C7.62311 59.6061 12.8908 64.6636 19.0977 68.2327L20.6928 65.4587ZM6.54365 51.9635C3.74226 45.9441 2.91089 39.1528 4.17626 32.6052L1.0344 31.998C-0.358293 39.2044 0.555597 46.6809 3.64245 53.3137L6.54365 51.9635ZM36.0293 2.79221C36.1801 2.63742 36.3938 2.54237 36.6258 2.54237V5.74237C37.2702 5.74237 37.8793 5.47916 38.3216 5.02501L36.0293 2.79221ZM36.6258 2.54237C36.8578 2.54237 37.0715 2.63743 37.2223 2.79221L34.93 5.02501C35.3724 5.47916 35.9814 5.74237 36.6258 5.74237V2.54237ZM37.2223 2.79223C37.3715 2.94542 37.4484 3.14464 37.4484 3.34422H34.2484C34.2484 3.96716 34.4892 4.57243 34.93 5.02499L37.2223 2.79223ZM37.4484 3.34422C37.4484 3.54385 37.3715 3.74307 37.2223 3.89623L34.93 1.66347C34.4892 2.11599 34.2484 2.72122 34.2484 3.34422H37.4484ZM37.2223 3.89625C37.0716 4.05094 36.858 4.14606 36.6258 4.14606V0.946064C35.9813 0.946064 35.3723 1.20939 34.93 1.66345L37.2223 3.89625ZM36.6258 4.14606C36.3937 4.14606 36.18 4.05095 36.0293 3.89625L38.3216 1.66345C37.8793 1.20939 37.2703 0.946064 36.6258 0.946064V4.14606ZM36.0293 3.89623C35.8801 3.74306 35.8032 3.54383 35.8032 3.34422H39.0032C39.0032 2.72124 38.7624 2.11601 38.3216 1.66347L36.0293 3.89623ZM35.8032 3.34422C35.8032 3.14466 35.8801 2.94544 36.0293 2.79223L38.3216 5.02499C38.7625 4.57241 39.0032 3.96714 39.0032 3.34422H35.8032ZM24.4795 27.5703C24.6843 27.2586 24.9041 26.948 25.1253 26.6527L22.5644 24.7339C22.308 25.0761 22.05 25.4405 21.8054 25.8126L24.4795 27.5703ZM25.1583 26.6069L25.3138 26.3835L22.6868 24.5562L22.5313 24.7797L25.1583 26.6069ZM25.2033 26.5247L25.4832 26.2055L23.0772 24.0957L22.7973 24.4149L25.2033 26.5247ZM25.5986 26.0572C25.6965 25.9148 25.8054 25.7821 25.9242 25.66L23.6312 23.428C23.3853 23.6806 23.1615 23.9536 22.9618 24.244L25.5986 26.0572ZM25.9891 25.5893C26.4926 25.0057 27.0391 24.4638 27.6234 23.9684L25.554 21.5276C24.8425 22.1309 24.178 22.7899 23.5663 23.4987L25.9891 25.5893ZM25.7447 24.1073C28.8265 26.0208 31.7621 28.1734 34.5258 30.5465L36.6105 28.1186C33.7227 25.639 30.6545 23.3892 27.4327 21.3887L25.7447 24.1073ZM34.5526 30.569C34.7752 30.7517 35.0262 30.8954 35.2994 30.9908L36.3548 27.9699C36.4517 28.0037 36.5284 28.0507 36.5837 28.0961L34.5526 30.569ZM34.82 30.7236C35.4301 31.2179 36.467 31.533 37.4653 30.9181L35.787 28.1935C35.9609 28.0864 36.1866 28.0343 36.4127 28.0639C36.6179 28.0908 36.7575 28.175 36.8343 28.2371L34.82 30.7236ZM37.3803 30.9669C40.8487 29.1131 44.1541 26.9562 47.2601 24.5204L45.2854 22.0024C42.3251 24.3239 39.1756 26.3789 35.8719 28.1447L37.3803 30.9669ZM45.2126 24.4598L50.0098 28.7037L52.1301 26.307L47.3329 22.063L45.2126 24.4598ZM50.0253 26.2934C47.1029 28.8124 44.3232 31.5007 41.7 34.3453L44.0524 36.5146C46.5931 33.7596 49.2849 31.1563 52.1145 28.7173L50.0253 26.2934ZM41.6827 34.3643C41.0992 35.0178 40.9446 35.846 41.1387 36.5817L44.2328 35.7653C44.2624 35.8775 44.271 36.0144 44.2377 36.1595C44.2034 36.3085 44.1348 36.4226 44.0697 36.4956L41.6827 34.3643ZM41.1644 35.6779C40.9285 36.4021 41.0172 37.285 41.6268 38.0002L44.0623 35.9245C44.1381 36.0135 44.2048 36.1416 44.2314 36.295C44.2569 36.4416 44.239 36.571 44.2071 36.669L41.1644 35.6779ZM44.4445 36.9624V36.8027H41.2445V36.9624H44.4445ZM41.6377 37.8532C44.1206 40.7058 46.4632 43.6777 48.6928 46.7699L51.2884 44.8983C49.0056 41.7324 46.6027 38.6834 44.0514 35.7523L41.6377 37.8532ZM48.9136 44.6508L43.9923 49.1297L46.1462 51.4963L51.0675 47.0174L48.9136 44.6508ZM46.4036 49.4301C44.4116 46.4194 42.0654 43.6693 39.4168 41.2425L37.2551 43.6019C39.7098 45.8511 41.886 48.4016 43.7349 51.1959L46.4036 49.4301ZM39.4302 41.2549C39.0296 40.8794 38.5305 40.6591 38.0003 40.6213L37.7727 43.8132C37.5504 43.7973 37.3623 43.7025 37.2417 43.5895L39.4302 41.2549ZM38.4769 40.7302C37.8059 40.4637 37.0383 40.5287 36.3867 40.9661L38.1702 43.623C38.0769 43.6856 37.9369 43.7479 37.7599 43.7666C37.5846 43.785 37.4244 43.7553 37.296 43.7043L38.4769 40.7302ZM36.4156 40.9472C33.107 43.066 29.9822 45.4716 27.0755 48.1373L29.2384 50.4957C32.0099 47.954 34.9885 45.661 38.1413 43.6419L36.4156 40.9472ZM29.416 48.3292L25.2366 42.999L22.7184 44.9735L26.8978 50.3037L29.416 48.3292ZM25.1085 45.118L32.9679 37.2646L30.706 35.001L22.8466 42.8544L25.1085 45.118ZM32.9591 37.2733C33.0476 37.1863 33.1307 37.0923 33.2069 36.9912L30.6521 35.0643C30.6744 35.0346 30.696 35.0108 30.7148 34.9923L32.9591 37.2733ZM32.7842 37.3803C33.2101 37.1112 33.6222 36.6704 33.8104 36.0649C34.0155 35.405 33.9057 34.6911 33.4889 34.0967L30.8689 35.934C30.8103 35.8504 30.7493 35.7249 30.7233 35.5635C30.6975 35.4025 30.7134 35.2478 30.7546 35.1153C30.8323 34.8651 30.9818 34.7339 31.0748 34.6752L32.7842 37.3803ZM33.5135 34.1328C31.064 30.4287 27.7677 27.3909 23.9084 25.2867L22.3765 28.0962C25.7713 29.9471 28.6793 32.6239 30.8443 35.8979L33.5135 34.1328ZM22.6141 25.8655C22.6249 25.8707 22.6354 25.8761 22.6457 25.8816L21.1257 28.6976C21.1569 28.7144 21.1884 28.7306 21.2204 28.746L22.6141 25.8655ZM22.713 25.9201C22.9015 26.034 23.0275 26.2121 23.0776 26.4065L19.979 27.2054C20.1339 27.8064 20.5169 28.332 21.0584 28.6591L22.713 25.9201ZM23.0776 26.4065C23.1275 26.5998 23.102 26.8067 23.002 26.9854L20.2095 25.4229C19.9054 25.9662 19.8243 26.6056 19.979 27.2054L23.0776 26.4065ZM22.9634 27.0508C24.052 25.3049 25.4084 23.7539 26.9783 22.4573L24.9405 19.99C23.1023 21.5083 21.5178 23.3213 20.2481 25.3575L22.9634 27.0508ZM27.0943 22.3515C26.9438 22.5029 26.7325 22.5955 26.5036 22.5955V19.3955C25.8676 19.3955 25.2656 19.6519 24.8245 20.0959L27.0943 22.3515ZM26.5036 22.5955C26.381 22.5955 26.2622 22.5688 26.1551 22.52L27.4833 19.6086C27.1793 19.4699 26.8457 19.3955 26.5036 19.3955V22.5955ZM26.45 22.6211C26.3624 22.6003 26.2792 22.5657 26.2037 22.5188L27.8915 19.8001C27.6731 19.6645 27.4356 19.5661 27.1884 19.5075L26.45 22.6211ZM26.205 22.5196C29.3967 24.4967 32.4465 26.7063 35.3309 29.1312L37.3901 26.6818C34.3881 24.158 31.2133 21.8579 27.8902 19.7993L26.205 22.5196ZM37.1271 29.3109C40.4708 27.4856 43.6598 25.377 46.661 23.0072L44.678 20.4958C41.8174 22.7544 38.7788 24.7634 35.5938 26.5022L37.1271 29.3109ZM46.9634 22.6926C46.9427 22.7212 46.9197 22.7488 46.8945 22.7752L44.58 20.5654C44.5059 20.6431 44.4377 20.725 44.3756 20.8104L46.9634 22.6926ZM46.86 22.8102C46.7157 22.9524 46.5147 23.0392 46.297 23.0392V19.8392C45.6621 19.8392 45.06 20.0916 44.6145 20.5304L46.86 22.8102ZM46.297 23.0392C46.0793 23.0392 45.8783 22.9524 45.7339 22.8102L47.9795 20.5304C47.534 20.0916 46.9319 19.8392 46.297 19.8392V23.0392ZM45.7934 22.8658L51.6085 28.0379L53.7352 25.6468L47.92 20.4747L45.7934 22.8658ZM51.5617 27.9945C51.4788 27.9147 51.4148 27.8204 51.3718 27.7183L54.3204 26.475C54.1963 26.1807 54.0136 25.9133 53.782 25.6901L51.5617 27.9945ZM51.3718 27.7183C51.3293 27.6175 51.3076 27.5097 51.3076 27.401H54.5076C54.5076 27.083 54.4439 26.768 54.3204 26.4749L51.3718 27.7183ZM51.3076 27.401C51.3076 27.2924 51.3293 27.1846 51.3718 27.0837L54.3204 28.3271C54.4439 28.0341 54.5076 27.7191 54.5076 27.401H51.3076ZM51.3718 27.0838C51.4108 26.9912 51.467 26.9052 51.5388 26.8305L53.846 29.0479C54.0474 28.8383 54.2079 28.5937 54.3204 28.3271L51.3718 27.0838ZM51.1215 27.6352C51.1494 27.4911 51.2185 27.3519 51.3278 27.2375L53.6423 29.4472C53.9648 29.1095 54.1769 28.6895 54.2632 28.2432L51.1215 27.6352ZM51.4376 27.1329C48.5381 29.6439 45.7734 32.3139 43.1555 35.1312L45.4997 37.3095C48.0392 34.5766 50.7206 31.987 53.5325 29.5518L51.4376 27.1329ZM43.1296 37.2808C45.5528 40.0184 47.8792 43.119 50.1186 46.1052L52.6787 44.1854C50.4544 41.2194 48.0501 38.0117 45.5257 35.1598L43.1296 37.2808ZM50.1186 46.1053L50.3027 46.3508L52.8628 44.4309L52.6787 44.1854L50.1186 46.1053ZM50.1184 46.0355C50.0414 45.8606 50.0312 45.6662 50.0872 45.4866L53.1421 46.4393C53.3155 45.8833 53.2827 45.2813 53.0472 44.7462L50.1184 46.0355ZM50.0872 45.4866C50.1227 45.3727 50.1844 45.2663 50.2695 45.1763L52.5945 47.375C52.8454 47.1096 53.0329 46.7896 53.1421 46.4393L50.0872 45.4866ZM49.8322 46.3017L49.8327 46.3277L53.0322 46.2756L53.0318 46.2496L49.8322 46.3017ZM49.8324 46.3016C49.8324 46.1048 49.9072 45.9081 50.0529 45.7555L52.3675 47.9652C52.7981 47.5142 53.0324 46.9163 53.0324 46.3016H49.8324ZM50.1364 45.6742L44.3524 50.91L46.5 53.2824L52.284 48.0465L50.1364 45.6742ZM44.2913 50.9684C44.4418 50.817 44.6531 50.7244 44.882 50.7244V53.9244C45.518 53.9244 46.12 53.668 46.5611 53.224L44.2913 50.9684ZM44.882 50.7244C45.1106 50.7244 45.3218 50.8167 45.4726 50.9684L43.2028 53.224C43.6442 53.6683 44.2465 53.9244 44.882 53.9244V50.7244ZM45.3917 50.8924C45.4882 50.9769 45.5622 51.0789 45.6118 51.1893L42.6931 52.5011C42.8294 52.8043 43.0297 53.0777 43.2837 53.3L45.3917 50.8924ZM45.6118 51.1892C45.6394 51.2507 45.6594 51.3145 45.6717 51.3793L42.5279 51.9765C42.5621 52.1563 42.6173 52.3325 42.6931 52.5012L45.6118 51.1892ZM45.4453 50.812C43.5527 47.8711 41.318 45.1771 38.7902 42.7896L36.5929 45.1159C38.9316 47.3248 41.0008 49.8189 42.7543 52.5437L45.4453 50.812ZM36.823 42.609C33.6375 44.6681 30.6301 47.0034 27.8337 49.5892L30.0063 51.9387C32.6681 49.4773 35.5299 47.2552 38.5601 45.2965L36.823 42.609ZM27.3688 50.372C27.3751 50.3469 27.3829 50.3215 27.3922 50.2958L30.3996 51.3892C30.4277 51.312 30.4515 51.2341 30.4713 51.1559L27.3688 50.372ZM27.3922 50.2958C27.4299 50.1923 27.4899 50.0948 27.5712 50.0114L29.8635 52.2442C30.1022 51.9991 30.2841 51.707 30.3996 51.3892L27.3922 50.2958ZM27.5711 50.0114C27.6523 49.9281 27.7527 49.8609 27.8669 49.8171L29.012 52.8053C29.3349 52.6815 29.6248 52.4892 29.8635 52.2442L27.5711 50.0114ZM27.8669 49.8171C27.9814 49.7733 28.105 49.7548 28.2289 49.7638L27.996 52.9553C28.3421 52.9806 28.6888 52.9291 29.012 52.8053L27.8669 49.8171ZM28.2288 49.7638C28.3529 49.7729 28.4716 49.8091 28.5769 49.868L27.014 52.6604C27.3148 52.8288 27.6498 52.9301 27.996 52.9553L28.2288 49.7638ZM28.5769 49.868C28.6824 49.927 28.7705 50.0066 28.8376 50.0985L26.2537 51.9861C26.4545 52.261 26.7129 52.4919 27.014 52.6604L28.5769 49.868ZM28.8018 50.0513L23.7641 43.666L21.2519 45.6481L26.2896 52.0333L28.8018 50.0513ZM23.7053 43.5957C23.8322 43.7389 23.8973 43.9184 23.8973 44.0984H20.6973C20.6973 44.6917 20.9128 45.2696 21.3107 45.7184L23.7053 43.5957ZM23.8973 44.0984C23.8973 44.1862 23.8819 44.273 23.8519 44.3552L20.8449 43.261C20.7479 43.5273 20.6973 43.8107 20.6973 44.0984H23.8973ZM23.93 43.5664C23.9499 43.6966 23.9427 43.8468 23.8923 43.9981C23.8414 44.1509 23.7608 44.2615 23.691 44.3301L21.4489 42.0469C20.8883 42.5974 20.6573 43.3333 20.7668 44.0498L23.93 43.5664ZM23.7009 44.3202L31.5936 36.4328L29.3316 34.1693L21.4389 42.0567L23.7009 44.3202ZM31.7745 34.3851C29.5037 31.1328 26.5148 28.4679 23.0444 26.6125L21.5357 29.4345C24.5558 31.0492 27.1647 33.3726 29.1507 36.217L31.7745 34.3851ZM23.0207 26.6001C23.1582 26.6707 23.3174 26.8103 23.4183 27.0236C23.5128 27.2233 23.5189 27.4078 23.5011 27.5323L20.3334 27.0793C20.2108 27.9361 20.5602 28.934 21.5594 29.4469L23.0207 26.6001Z" fill="#052838" mask="url(#path-1-outside-1_45_59)"/>
</svg>
