<svg width="74" height="74" viewBox="0 0 74 74" fill="none" xmlns="http://www.w3.org/2000/svg">
<path d="M32.2027 72.4917L32.2088 72.4925C38.7221 73.3451 45.3462 72.4166 51.3685 69.8066C57.3909 67.1966 62.584 63.0037 66.3886 57.6784L66.3996 57.6628C70.1844 52.0887 72.3776 45.5982 72.7449 38.8826C73.1115 32.1783 71.6447 25.5009 68.5009 19.5592C65.4035 12.302 59.6436 6.48951 52.3917 3.3014C52.3797 3.29613 52.3676 3.29116 52.3554 3.28649C44.1535 0.151196 35.2084 1.08243 26.9472 2.62437C26.4667 2.6495 26.0492 2.8858 25.8189 3.30661C25.6042 3.69877 25.6156 4.1351 25.7056 4.47303C25.8747 5.10819 26.5293 5.95991 27.6055 5.75289C27.618 5.75049 27.6304 5.74778 27.6428 5.74479C34.5935 4.06011 41.8402 3.9823 48.8257 5.51721C55.0762 7.36627 60.3569 11.559 63.5515 17.2074C63.5612 17.2246 63.5716 17.2415 63.5826 17.258C67.0231 22.4087 69.044 28.3658 69.4441 34.5347C69.8439 40.6993 68.6112 46.8605 65.8686 52.4044C63.1242 57.5214 59.0487 61.8139 54.0663 64.8339C49.0803 67.8561 43.3691 69.4929 37.5288 69.5732C31.6885 69.6535 25.9339 68.1742 20.8656 65.2901C15.7984 62.4067 11.6033 58.2249 8.71738 53.1817C5.47473 47.3898 4.06048 40.7627 4.65809 34.1618C5.25569 27.561 7.83755 21.2911 12.0687 16.1672C12.7378 15.3712 12.4545 14.4133 11.9534 13.9082C11.6985 13.6513 11.3316 13.4432 10.9007 13.4249C10.4418 13.4055 10.0137 13.607 9.70546 13.9845C5.55118 18.8675 2.78999 24.769 1.7102 31.0743C0.62987 37.3826 1.27227 43.8634 3.57024 49.8407C5.86819 55.818 9.73736 61.0723 14.7736 65.0562C19.8099 69.0401 25.8288 71.6077 32.2027 72.4917ZM15.8501 54.4336C15.6856 54.8859 15.7264 55.351 15.967 55.7345C15.6569 55.8966 15.4234 56.1461 15.283 56.4458C15.1069 56.8216 15.096 57.2327 15.1915 57.5866C15.2867 57.9397 15.5045 58.296 15.8611 58.5276C16.2374 58.7719 16.7014 58.8326 17.1665 58.685C27.9907 55.3585 38.574 51.3019 48.8427 46.5436L48.8427 46.5436L48.8524 46.539C49.2855 46.3312 49.5821 45.9701 49.6714 45.5211C49.7122 45.3156 49.705 45.1156 49.6668 44.9303C49.6997 44.8621 49.7283 44.7909 49.7525 44.717C49.753 44.7155 49.7535 44.714 49.754 44.7124L58.9789 17.3032C59.2279 16.6125 58.9729 15.9815 58.5042 15.616C58.1121 15.3103 57.5752 15.1871 57.0758 15.2986C56.9445 15.3082 56.8145 15.3342 56.6872 15.3747C56.6861 15.375 56.6849 15.3754 56.6837 15.3758L27.2165 24.5482L27.2165 24.5482L27.21 24.5502C26.7818 24.6875 26.4683 24.9613 26.2835 25.2994C26.05 25.4819 25.8647 25.7352 25.7577 26.0506L15.8501 54.4336ZM46.6179 44.0187C37.699 48.1249 28.5386 51.69 19.1871 54.6948L28.6655 27.4491L54.9323 19.2729L46.6822 43.7858C46.6551 43.8628 46.6336 43.9406 46.6179 44.0187ZM40.4534 29.6988C39.1913 29.1212 37.7774 28.9614 36.4189 29.2411C36.1419 29.2296 35.858 29.2963 35.5945 29.4534C35.551 29.4794 35.5107 29.509 35.4738 29.5416C34.3833 30.1004 33.4311 30.8956 32.6883 31.8702C31.8882 32.9202 31.355 34.1473 31.1346 35.447L31.1317 35.465C30.9371 36.7958 31.2014 38.1525 31.881 39.3143C32.5606 40.4761 33.6151 41.374 34.872 41.8632C34.885 41.8682 34.898 41.8729 34.9112 41.8773C36.1553 42.2883 37.4879 42.3574 38.7682 42.0775C40.0485 41.7976 41.2294 41.1788 42.1858 40.2861L42.186 40.2859C43.2249 39.3156 43.9149 38.032 44.1487 36.6325C44.3826 35.2329 44.1471 33.7959 43.4789 32.5429C42.8108 31.29 41.7475 30.291 40.4534 29.6988ZM40.3145 37.7343C40.308 37.7412 40.3015 37.7482 40.2952 37.7554C39.8196 38.2942 39.2114 38.7021 38.5295 38.9391C37.8554 39.1734 37.1322 39.2326 36.4287 39.1112C35.7768 38.947 35.2082 38.5527 34.8288 38.003C34.4451 37.4471 34.2815 36.771 34.3683 36.1037C34.4772 35.2821 34.7891 34.4997 35.2766 33.8263C35.6925 33.2518 36.2252 32.7717 36.839 32.4167C36.9402 32.409 37.0411 32.3917 37.1403 32.3648C37.8366 32.2077 38.5653 32.2759 39.2198 32.5593C39.8784 32.8446 40.4263 33.3324 40.7834 33.9497C41.1207 34.5476 41.2572 35.2363 41.1735 35.916C41.0896 36.5969 40.789 37.2341 40.3145 37.7343ZM18.5143 11.3364C18.9396 11.3364 19.3485 11.1685 19.6508 10.8681C19.9532 10.5676 20.124 10.1589 20.124 9.73166C20.124 9.30446 19.9532 8.89575 19.6508 8.59518C19.3485 8.29478 18.9396 8.12688 18.5143 8.12688C18.0889 8.12688 17.68 8.29477 17.3778 8.59518C17.0753 8.89576 16.9046 9.30446 16.9046 9.73166C16.9046 10.1589 17.0753 10.5676 17.3778 10.8681C17.68 11.1685 18.0889 11.3364 18.5143 11.3364Z" fill="#052838" stroke="#052838" stroke-width="1.6" stroke-linejoin="round"/>
</svg>
