<svg width="74" height="74" viewBox="0 0 74 74" fill="none" xmlns="http://www.w3.org/2000/svg">
<path d="M26.1601 24.2707H3.01185C2.76657 24.2707 2.5313 24.3335 2.32363 24.4462C1.8571 24.5927 1.48683 24.9546 1.31267 25.3796C1.09765 25.9043 1.17206 26.5639 1.71019 27.036C8.40048 32.9052 14.9264 38.9261 21.288 45.0987L14.954 70.0148C14.9473 70.0413 14.9419 70.0681 14.9379 70.0952C14.8985 70.362 14.926 70.6363 15.0188 70.89C14.9811 71.2207 15.0449 71.56 15.2079 71.8557C15.4004 72.2049 15.7249 72.4783 16.1281 72.5872C16.5316 72.6962 16.9543 72.6234 17.298 72.3981C24.093 68.0426 30.6389 63.2374 36.8994 58.0094C43.5458 63.1264 50.3817 67.9043 57.407 72.3428C57.4303 72.3576 57.4543 72.3711 57.479 72.3833C57.499 72.3932 57.5192 72.4026 57.5396 72.4116C57.8037 72.6544 58.1511 72.8 58.5252 72.8C58.9459 72.8 59.3324 72.6161 59.605 72.317C59.8754 72.0205 60.0164 71.6329 60.0164 71.2421L60.0164 71.2395C59.9884 62.4171 58.6648 53.658 56.097 45.2979L72.3848 27.5826L72.3869 27.5802C72.8767 27.0431 72.8829 26.3805 72.6531 25.8782C72.6018 25.5883 72.4716 25.3117 72.2668 25.0871C71.994 24.788 71.6074 24.6042 71.1869 24.6042L71.1849 24.6042C63.6172 24.6234 56.0551 24.1676 48.5357 23.2394C48.3172 23.0482 48.0454 22.922 47.7502 22.8863C46.5816 15.5765 44.2877 8.5332 40.9632 2.05828C40.9497 2.03189 40.9346 2.00627 40.9182 1.98154C40.8997 1.95357 40.8803 1.92623 40.86 1.89954C40.6038 1.5106 40.1746 1.25355 39.7135 1.20747C39.1919 1.15534 38.6554 1.37642 38.3136 1.88925L38.3135 1.8892L38.3072 1.89901C33.7268 8.99463 29.6653 16.4752 26.1601 24.2707ZM35.9487 54.8346C30.3783 59.5146 24.5846 63.8638 18.5926 67.8637L23.8535 47.5391L28.4028 51.7668C28.5317 51.9045 28.6864 52.0186 28.8609 52.0999L29.1989 51.3748L28.8609 52.0999C29.0505 52.1883 29.2576 52.2352 29.4692 52.2352C29.6807 52.2352 29.8879 52.1883 30.0776 52.0999C30.2671 52.0116 30.4329 51.8848 30.5677 51.7314C30.5727 51.7257 30.5776 51.72 30.5824 51.7142C30.8271 51.4193 30.954 51.0474 30.954 50.6727C30.954 50.2981 30.8271 49.9261 30.5824 49.6313C30.56 49.6043 30.5359 49.5788 30.5102 49.555L24.1197 43.6413C24.0773 43.5864 24.0313 43.534 23.9818 43.4843L23.9818 43.4843L23.9763 43.4788C18.3621 37.9449 12.62 32.5808 6.74978 27.3865H27.5063C27.9269 27.3865 28.3134 27.2026 28.5861 26.9035C28.8565 26.607 28.9975 26.2193 28.9975 25.8286C28.9975 25.6947 28.981 25.5617 28.9486 25.4328C32.0206 18.6125 35.5226 12.0372 39.4289 5.75456C41.8921 11.0506 43.6593 16.7053 44.6761 22.5499L41.639 22.2138C41.5988 22.2094 41.5583 22.208 41.5179 22.2096C41.1119 22.2264 40.7428 22.4106 40.4788 22.7002L41.0336 23.2062L40.4788 22.7002C40.2166 22.9877 40.0734 23.36 40.0603 23.7393C40.06 23.7485 40.0598 23.7577 40.0598 23.7669C40.0598 24.1576 40.2008 24.5453 40.4712 24.8418C40.7324 25.1283 41.098 25.3091 41.4981 25.3238L45.9529 25.8168C46.1647 25.987 46.4291 26.1039 46.7354 26.1379C53.8372 27.0783 60.9791 27.6004 68.1306 27.7021L53.2689 43.8665C52.6749 44.4952 52.7895 45.2845 53.1271 45.7944C55.4121 53.0933 56.7093 60.7164 56.9807 68.4205C50.4496 64.1893 44.0701 59.6751 37.8419 54.878C37.6948 54.7615 37.5269 54.6693 37.3413 54.6162C37.1548 54.5326 36.939 54.4875 36.7064 54.5086C36.4182 54.5346 36.162 54.6569 35.9511 54.8326L35.9487 54.8346Z" fill="#052838" stroke="#052838" stroke-width="1.6" stroke-linejoin="round"/>
</svg>
