<svg width="74" height="74" viewBox="0 0 74 74" fill="none" xmlns="http://www.w3.org/2000/svg">
<path d="M57.3105 5.91503C60.688 10.1423 64.3509 14.032 68.2629 17.5447C54.0821 34.0914 40.3246 51.13 26.9905 68.6605C18.9584 60.5071 11.5865 51.4642 4.97384 41.6518C6.35678 38.6862 8.12374 36.0151 10.2011 33.7348C10.7032 33.6786 11.1754 33.3902 11.4931 32.8705L11.4931 32.8706L11.4966 32.8648L12.1272 31.8136C12.2929 31.6637 12.4601 31.516 12.6288 31.3707C12.9898 31.0861 13.2234 30.6766 13.3197 30.2416C13.3606 30.0571 13.3769 29.8684 13.3693 29.6815C13.3744 29.6741 13.3795 29.6668 13.3847 29.6595L16.9053 33.2781L16.9069 33.2798L23.5694 40.1677L20.7497 43.8234C20.4564 44.1863 20.309 44.6466 20.309 45.1039C20.309 45.5656 20.4593 46.0305 20.7582 46.395C20.7634 46.4012 20.7686 46.4074 20.7739 46.4135C21.0905 46.7765 21.5444 47.0118 22.0513 47.0118C22.5581 47.0118 23.012 46.7765 23.3286 46.4135C23.3385 46.4021 23.3481 46.3905 23.3573 46.3787L27.7754 40.6955C28.07 40.3257 28.2185 39.8586 28.2185 39.3939C28.2185 39.3491 28.2171 39.3044 28.2144 39.2598L57.3105 5.91503ZM56.1099 1.78709L25.4638 36.9082L15.5364 26.8211C15.2018 26.3933 14.7806 26.0489 14.2972 25.8259C13.7962 25.5948 13.2492 25.5041 12.7035 25.568C12.667 25.5722 12.6308 25.579 12.5952 25.5882C12.0028 25.7422 11.5727 26.1052 11.2532 26.4804C10.9498 26.8365 10.7037 27.2563 10.5018 27.6006L10.4862 27.6273C10.4267 27.7287 10.3705 27.8244 10.3143 27.9175C10.3139 27.9181 10.3136 27.9187 10.3132 27.9193L9.48355 29.2751C6.10213 32.4594 3.33996 36.4746 1.38413 41.0451C0.988968 41.9345 1.27195 42.8112 1.81064 43.3304C8.70582 53.6668 16.4353 63.1708 24.8889 71.7049C25.2374 72.0665 25.6808 72.2544 26.1479 72.2348C26.23 72.2314 26.31 72.2217 26.3877 72.2065C26.5666 72.4103 26.7876 72.5781 27.044 72.6841C27.3361 72.8048 27.681 72.8447 28.0317 72.7388C28.3027 72.6569 28.5346 72.5011 28.7251 72.2985C28.7943 72.2508 28.8565 72.192 28.9086 72.1235C42.6139 54.0964 56.7677 36.5768 71.3701 19.5645C71.6377 19.5206 71.8761 19.4001 72.0676 19.2438C72.3711 18.9961 72.5738 18.6525 72.6858 18.3086C72.905 17.6357 72.8506 16.6844 72.1148 16.0417L72.1096 16.0373C67.3468 11.9487 62.9403 7.2926 58.9581 2.13914C58.8325 1.97556 58.6852 1.8323 58.5151 1.72032C58.2548 1.4583 57.8976 1.24725 57.4724 1.2068C56.956 1.1577 56.4719 1.37326 56.1105 1.78636L56.1099 1.78709Z" fill="#052838" stroke="#052838" stroke-width="1.6" stroke-linejoin="round"/>
</svg>
